#!OML:ASF F:\VICON\USERDATA\INSTALL\rory3\rory3.ASF
:FULLY-SPECIFIED
:DEGREES
386
root 0.295662 16.2504 -4.31953 -159.332 -1.98164 182.015
lowerback -10.6835 3.01361 2.41017
upperback -8.99187 2.6334 -0.0974708
thorax -3.28473 0.674146 -1.21673
lowerneck -1.25672 7.77335 1.33119
upperneck 52.0358 -5.24135 5.45861
head 21.9506 -5.15479 0.250812
rclavicle -2.73329e-016 -8.15017e-015
rhumerus 27.5149 -16.6313 -5.01166
rradius 102.467
rwrist 3.60116
rhand -3.20305 8.61845
rfingers 7.12502
rthumb 22.5191 -20.0884
lclavicle -2.73329e-016 -8.15017e-015
lhumerus 22.8432 15.6633 -3.29122
lradius 104.309
lwrist -25.0058
lhand -16.395 11.0496
lfingers 7.12502
lthumb 9.81909 40.8007
rfemur -31.2018 7.52418 30.8106
rtibia 40.0021
rfoot -40.2465 -31.9264
rtoes 16.7194
lfemur -73.8555 21.8481 -44.0554
ltibia 55.8987
lfoot 1.80751 14.6165
ltoes -9.30506
387
root 0.305727 16.2468 -4.29309 -158.99 -1.75772 182.357
lowerback -11.7684 4.04987 3.05902
upperback -7.8565 4.08411 -0.252725
thorax -1.38952 1.4859 -1.53446
lowerneck -4.9905 6.50062 -0.471085
upperneck 51.4388 -5.92276 6.054
head 22.8942 -5.26299 0.873864
rclavicle -4.14979e-014 -7.55382e-015
rhumerus 21.9888 -18.3347 -1.64706
rradius 104.932
rwrist 4.06409
rhand -4.94968 9.382
rfingers 7.12502
rthumb 20.8418 -19.5185
lclavicle -4.14979e-014 -7.55382e-015
lhumerus 22.4796 16.6458 -0.458843
lradius 105.104
lwrist -27.2678
lhand -17.8354 11.1899
lfingers 7.12502
lthumb 8.4292 41.0017
rfemur -31.7715 7.8676 31.0676
rtibia 40.1614
rfoot -39.9554 -31.8122
rtoes 17.5665
lfemur -75.5904 22.6722 -44.7223
ltibia 57.9038
lfoot 1.93657 15.2334
ltoes -9.45136
388
root 0.315255 16.2506 -4.27551 -159.112 -2.11821 182.057
lowerback -11.4574 2.95543 2.48816
upperback -9.39946 2.40246 -0.1237
thorax -3.30423 0.494339 -1.28523
lowerneck -0.845565 7.78474 1.68896
upperneck 51.8089 -5.08102 5.30908
head 21.5712 -5.06431 0.133682
rclavicle 8.47941e-015 1.60519e-014
rhumerus 20.9702 -14.2532 -4.07798
rradius 107.189
rwrist 4.7744
rhand -6.89412 10.7379
rfingers 7.12502
rthumb 18.9727 -18.3567
lclavicle 8.47941e-015 1.60519e-014
lhumerus 16.3285 12.7505 -3.66781
lradius 107.037
lwrist -27.7068
lhand -19.1311 11.4852
lfingers 7.12502
lthumb 7.17865 41.3434
rfemur -31.8027 8.28347 30.7732
rtibia 40.3036
rfoot -40.6742 -32.1449
rtoes 18.6569
lfemur -76.3636 23.1013 -45.6112
ltibia 59.8443
lfoot 3.94027 14.8029
ltoes -15.1493
389
root 0.321792 16.248 -4.24776 -159.055 -2.39677 181.853
lowerback -11.655 2.9032 2.46627
upperback -9.58987 2.2811 -0.240453
thorax -3.40215 0.407055 -1.40047
lowerneck -1.06219 7.76299 1.36253
upperneck 51.829 -5.2628 5.66161
head 21.7089 -5.18003 0.342836
rclavicle -3.11284e-014 -1.21259e-014
rhumerus 17.6571 -12.7855 -3.9851
rradius 108.998
rwrist 5.51824
rhand -10.06 12.6481
rfingers 7.12502
rthumb 15.9258 -16.7171
lclavicle -3.11284e-014 -1.21259e-014
lhumerus 13.0738 11.1881 -3.67081
lradius 108.405
lwrist -27.9248
lhand -23.0602 15.1448
lfingers 7.12502
lthumb 3.38499 45.0977
rfemur -32.0804 8.43484 30.572
rtibia 40.4819
rfoot -41.0903 -32.1638
rtoes 19.3283
lfemur -77.3821 23.3736 -46.4163
ltibia 61.7928
lfoot 5.84001 14.7238
ltoes -16.9215
390
root 0.325919 16.2434 -4.22017 -158.933 -2.50361 181.7
lowerback -11.9231 2.9217 2.48679
upperback -9.69585 2.25995 -0.367259
thorax -3.3661 0.375434 -1.53916
lowerneck -1.61383 7.67632 0.917097
upperneck 51.7662 -5.44059 6.1003
head 21.8997 -5.26897 0.629372
rclavicle 4.38569e-015 -5.98839e-015
rhumerus 14.1227 -11.4194 -3.83474
rradius 110.59
rwrist 5.96576
rhand -14.0732 14.9603
rfingers 7.12502
rthumb 12.0585 -14.6722
lclavicle 4.38569e-015 -5.98839e-015
lhumerus 9.99299 10.0159 -3.20138
lradius 109.422
lwrist -28.2681
lhand -24.0786 14.6342
lfingers 7.12502
lthumb 2.40143 44.6004
rfemur -32.365 8.55618 30.3726
rtibia 40.6348
rfoot -41.6911 -31.6321
rtoes 20.7738
lfemur -78.4531 23.607 -47.1002
ltibia 63.7423
lfoot 6.69323 15.4936
ltoes -18.0953
391
root 0.33574 16.24 -4.19742 -158.798 -2.50326 181.653
lowerback -12.0629 2.9819 2.45336
upperback -10.0007 2.26393 -0.433187
thorax -3.61639 0.336921 -1.58589
lowerneck -1.8789 7.65616 0.783879
upperneck 51.8389 -5.54685 6.2375
head 22.0905 -5.33796 0.697152
rclavicle 2.09493e-014 8.0632e-015
rhumerus 10.5177 -9.75546 -3.78152
rradius 111.978
rwrist 6.13521
rhand -18.1103 17.968
rfingers 7.12502
rthumb 8.16384 -11.8543
lclavicle 2.09493e-014 8.0632e-015
lhumerus 6.91553 8.38633 -2.55296
lradius 110.169
lwrist -28.7908
lhand -24.3941 11.8865
lfingers 7.12502
lthumb 2.09674 41.8559
rfemur -32.6421 8.88826 30.2647
rtibia 40.7295
rfoot -41.9898 -31.6557
rtoes 21.3017
lfemur -79.5742 24.0014 -47.6318
ltibia 65.7137
lfoot 7.76048 15.956
ltoes -17.8676
